<?xml version="1.0" standalone="no"?>
<!DOCTYPE svg PUBLIC "-//W3C//DTD SVG 20010904//EN"
 "http://www.w3.org/TR/2001/REC-SVG-20010904/DTD/svg10.dtd">
<svg version="1.0" xmlns="http://www.w3.org/2000/svg"
 width="252.000000pt" height="252.000000pt" viewBox="0 0 252.000000 252.000000"
 preserveAspectRatio="xMidYMid meet">
<metadata>
Created by potrace 1.11, written by Peter Selinger 2001-2013
</metadata>
<g transform="translate(0.000000,252.000000) scale(0.100000,-0.100000)"
fill="#000000" stroke="none">
<path d="M1209 2130 c-8 -13 -10 -13 -19 0 -10 13 -11 13 -9 0 3 -20 -11 -50
-22 -50 -5 0 -9 7 -9 16 0 30 -20 2 -26 -37 l-7 -39 -176 0 c-117 0 -171 -4
-161 -10 8 -5 97 -10 198 -10 114 0 182 -4 182 -10 0 -6 -69 -10 -186 -10
-124 0 -193 -4 -207 -12 -12 -6 -35 -11 -51 -10 -26 2 -28 0 -20 -20 13 -34
17 -1188 4 -1188 -7 0 -10 198 -10 592 0 391 -3 589 -10 582 -6 -6 -11 -218
-12 -574 l-3 -565 -50 -8 c-27 -5 -78 -15 -113 -23 -35 -8 -67 -12 -73 -9 -5
4 -9 2 -9 -2 0 -5 -27 -17 -60 -26 -33 -10 -62 -22 -65 -27 -3 -5 -12 -7 -20
-3 -8 3 -15 0 -15 -6 0 -6 -9 -11 -20 -11 -13 0 -20 -7 -20 -20 0 -11 -4 -20
-10 -20 -5 0 -10 -14 -10 -30 0 -73 148 -145 370 -180 41 -6 91 -15 110 -20
72 -18 245 -25 585 -25 195 0 399 5 460 12 143 15 342 50 380 67 17 8 41 17
55 20 43 12 100 39 100 48 0 4 8 8 18 8 20 0 42 38 42 71 0 21 -67 95 -77 85
-4 -3 -16 0 -27 7 -12 8 -42 20 -68 28 -27 7 -48 16 -48 19 0 3 -17 6 -37 7
-20 1 -39 5 -42 10 -3 4 -14 8 -23 9 -10 0 -34 1 -53 2 l-35 2 0 574 c0 373
-4 577 -10 581 -7 4 -10 -197 -10 -597 -1 -401 -4 -597 -10 -586 -13 21 -8
1163 4 1197 6 17 6 22 -2 17 -6 -3 -18 1 -27 10 -9 9 -19 14 -22 11 -3 -3 1
-13 10 -21 8 -8 17 -12 21 -9 3 4 6 -2 6 -11 0 -15 -7 -12 -35 13 l-36 31
-192 1 c-106 1 -198 1 -204 0 -7 -1 -13 3 -13 9 0 6 67 10 198 10 110 0 204 5
212 10 10 6 -47 10 -171 10 l-186 0 -7 40 c-6 41 -26 56 -26 19 0 -11 5 -17
10 -14 6 4 10 -5 10 -19 0 -14 -4 -26 -10 -26 -5 0 -10 9 -10 19 0 11 -5 23
-10 26 -6 3 -8 18 -5 33 3 15 2 21 -1 15 -10 -22 -26 -14 -20 10 3 12 3 17 0
10 -4 -9 -14 -8 -40 3 -42 18 -113 14 -125 -6z m-59 -85 c0 -14 -4 -25 -10
-25 -5 0 -10 11 -10 25 0 14 5 25 10 25 6 0 10 -11 10 -25z m140 -15 c0 -5 -4
-10 -10 -10 -5 0 -10 5 -10 10 0 6 5 10 10 10 6 0 10 -4 10 -10z m-565 -89 c3
-5 1 -12 -5 -16 -5 -3 -10 1 -10 9 0 18 6 21 15 7z"/>
<path d="M745 1990 c3 -5 13 -10 21 -10 8 0 14 5 14 10 0 6 -9 10 -21 10 -11
0 -17 -4 -14 -10z"/>
<path d="M1800 1990 c0 -5 6 -10 14 -10 8 0 18 5 21 10 3 6 -3 10 -14 10 -12
0 -21 -4 -21 -10z"/>
</g>
</svg>
