<svg width="30" height="30" xmlns="http://www.w3.org/2000/svg">

 <g>
  <title>background</title>
  <rect fill="none" id="canvas_background" height="402" width="582" y="-1" x="-1"/>
 </g>
 <g>
  <title>Layer 1</title>
  <path stroke="null" fill="#f69a18" id="svg_1" d="m27.202728,0.085555l-24.405456,0c-1.498224,0 -2.711717,1.213493 -2.711717,2.711717l0,24.405456c0,1.498224 1.213494,2.711717 2.711717,2.711717l24.405456,0c1.498224,0 2.711717,-1.213493 2.711717,-2.711717l0,-24.405456c0,-1.498224 -1.214849,-2.711717 -2.711717,-2.711717zm-3.108984,10.449603l-10.250292,10.250291c-0.254901,0.254901 -0.59929,0.397267 -0.958592,0.397267s-0.705047,-0.142365 -0.958592,-0.397267l-4.68178,-4.68178c-0.530141,-0.530141 -0.530141,-1.387043 0,-1.917184s1.387043,-0.530141 1.917184,0l3.723188,3.723188l9.291699,-9.291699c0.530141,-0.530141 1.387043,-0.530141 1.917184,0s0.530141,1.387043 0,1.917184z"/>
 </g>
</svg>